<?xml version="1.0" encoding="utf-8"?>
<!-- Generator: Adobe Illustrator 27.9.0, SVG Export Plug-In . SVG Version: 6.00 Build 0)  -->
<svg version="1.1" id="Layer_1" xmlns="http://www.w3.org/2000/svg" xmlns:xlink="http://www.w3.org/1999/xlink" x="0px" y="0px"
	 viewBox="0 0 605.1 66.9" style="enable-background:new 0 0 605.1 66.9;" xml:space="preserve">
<style type="text/css">
	.st0{fill:#0C0D0E;}
</style>
<g>
	<rect x="161.5" y="52.1" class="st0" width="69.6" height="13"/>
	<rect x="505.4" y="52.1" class="st0" width="95.8" height="13"/>
	<g>
		<path class="st0" d="M33.9,1.3l-9.3,63.8H11.3L0.1,1.3h14.3L19.1,35h0.1l4.2-33.6L33.9,1.3L33.9,1.3z"/>
		<path class="st0" d="M36,21.3c0-12,5.8-21.1,17.8-21.1c12,0,17.2,9.1,17.2,21.1v23.8c0,12-5.2,21.1-17.2,21.1
			C41.8,66.2,36,57,36,45C36,45,36,21.3,36,21.3z M50,47.6c0,3.6,1.2,5.5,3.4,5.5c2.3,0,3.5-1.9,3.5-5.5V18.8c0-3.6-1.2-5.5-3.5-5.5
			c-2.2,0-3.4,1.9-3.4,5.5L50,47.6L50,47.6z"/>
		<path class="st0" d="M112.2,14.6H99.9l0,50.5H84.9l0-50.5H72.6V1.3l39.6,0L112.2,14.6L112.2,14.6z"/>
		<path class="st0" d="M130.3,27.7h7.8v11.8h-7.7v12.6h14.4v13h-29.1l0-63.8h29.1v13.4h-14.5L130.3,27.7L130.3,27.7z"/>
	</g>
	<g>
		<path class="st0" d="M171.1,18.6h5.1v7.7h-5v16.8h-9.7l0-41.8h19.1v8.8h-9.5L171.1,18.6L171.1,18.6z"/>
		<path class="st0" d="M181.7,14.4c0-7.9,3.8-13.8,11.7-13.8c7.9,0,11.2,6,11.2,13.8V30c0,7.9-3.4,13.8-11.2,13.8
			c-7.9,0-11.7-6-11.7-13.8L181.7,14.4L181.7,14.4z M191,31.7c0,2.4,0.8,3.6,2.2,3.6c1.5,0,2.3-1.2,2.3-3.6V12.8
			c0-2.4-0.8-3.6-2.3-3.6c-1.4,0-2.2,1.2-2.2,3.6L191,31.7L191,31.7z"/>
		<path class="st0" d="M208.1,1.3h12c6.4,0,10,4.8,10,10.4c0,6.1-1.4,7.6-4.2,8.8v0.1c2.8,1.2,4.4,3.4,4.3,6.3
			c-0.2,8.4-0.2,9.1-0.1,10.8c0.1,2.5,1.1,5.4,1.1,5.4h-8.9c-0.9-1.1-1.2-3.9-1.2-5.8l0.1-10.1c0-1.3-0.9-2.2-2.2-2.2h-1.7v18.2
			h-9.2L208.1,1.3L208.1,1.3z M218.1,17.8c2-0.1,3.2-1.6,3.2-3.7v-1.3c0-2.6-1-3.8-3.2-3.8h-0.9v8.8H218.1L218.1,17.8z"/>
	</g>
	<g>
		<path class="st0" d="M527.2,43h-21.8v-8.9l8.1-11.8c2.2-3.2,4-6.5,4-10.4c0-2-1.2-2.9-2.7-2.9c-1.4,0-2.5,1.3-2.5,2.6v5.9h-7.1V12
			c0-5.2,2-11.4,11.3-11.4c5.8,0,10.6,4.1,10.6,10c0,4.6-1.8,9.3-3.9,12.5L516,34.2h11.2L527.2,43L527.2,43z"/>
		<path class="st0" d="M553.3,12.2v20c0,6.4-5.3,11.7-11.7,11.7s-11.7-5.3-11.7-11.7v-20c0-6.4,5.3-11.7,11.7-11.7
			S553.3,5.8,553.3,12.2z M543.8,11.5c0-1.2-1-2.3-2.2-2.3c-1.3,0-2.3,1.1-2.3,2.3v20.9c0,1.3,1,2.3,2.3,2.3c1.2,0,2.2-1,2.2-2.3
			L543.8,11.5L543.8,11.5z"/>
		<path class="st0" d="M578.2,43h-21.8v-8.9l8.2-11.8c2.2-3.2,4-6.5,4-10.4c0-2-1.2-2.9-2.7-2.9c-1.4,0-2.5,1.3-2.5,2.6v5.9h-7.1V12
			c0-5.2,2-11.4,11.3-11.4c5.8,0,10.6,4.1,10.6,10c0,4.6-1.8,9.3-3.9,12.5l-7.4,11.1h11.2L578.2,43L578.2,43z"/>
		<path class="st0" d="M579.7,25.1l11.4-23.8h10.2v23.8h3.8v6.3h-3.8v11.7h-8.9V31.4h-12.7L579.7,25.1L579.7,25.1z M592.4,25.1V10.9
			l-6.9,14.2L592.4,25.1L592.4,25.1z"/>
	</g>
	<g>
		<path class="st0" d="M262.9,65.1l-0.9-7h-7.4l-0.8,7h-10.4l9.2-63.7H266l11.2,63.7H262.9L262.9,65.1z M258.2,31.5h-0.1l-2.6,18.7
			h5.2L258.2,31.5z"/>
		<path class="st0" d="M314.5,65.1h-9.7l-13.3-31.8v31.8h-11.6l0-63.7h12l11,24.4V1.4h11.6L314.5,65.1L314.5,65.1z"/>
		<path class="st0" d="M389.6,65.1h-14.2l0-30.7l-6.8,30.7h-5.9L356,34.3v30.7h-11.6l0-63.7h17.6l5.8,23.2l5-23.2h17L389.6,65.1
			L389.6,65.1z"/>
		<path class="st0" d="M412.8,65.1l-0.9-7h-7.4l-0.8,7h-10.4l9.2-63.7h13.3l11.2,63.7H412.8L412.8,65.1z M408.1,31.5H408l-2.6,18.7
			h5.2L408.1,31.5z"/>
		<path class="st0" d="M458.5,65.1h-28.6L430,1.4h14.2l0,50.3h14.4L458.5,65.1L458.5,65.1z"/>
		<path class="st0" d="M495.8,48.3c0,11.5-7.8,17.9-17.4,17.9h-1.8c-11.8,0-16.8-9.1-16.8-18.1v-6h9.4v5.2c0,4,2,6.7,6,6.7
			c3.4,0,6.3-2.4,6.3-5.7c0-2.6-1.8-5.9-6.4-9c-9.9-6.6-13.8-14.7-13.8-23.9c0-7.7,5.5-14.9,15.6-14.9c10.4,0,15.7,6.3,15.7,15.7
			v6.3h-9.9v-5.2c0-3.5-2.5-4.7-4.7-4.7s-4.3,1.6-4.3,4.7c0,3.8,4,7.5,8.2,10.1C493.4,34.2,495.8,40.1,495.8,48.3L495.8,48.3z"/>
	</g>
	<g>
		<path class="st0" d="M319.4,11.9c-0.3-2.5-0.2-5.5-0.4-8.5c0-0.5-0.1-0.9-0.1-1.3c0-0.8,0.4-1,1.5-1c5.6,0.3,11.2,0.5,16.9,0.5
			c2.6,0,2.5,0,2.4,2c-0.2,4.4-0.8,8.8-1.1,13.2c-0.3,4.6-0.3,9.3-0.7,13.9c-0.2,2.2-0.1,4.5-0.1,6.8c0,1.5-0.4,2.9-0.5,4.4
			c0,0.7-0.9,1.1-1.8,1.1c-3.6-0.1-7.2-0.3-10.8-0.6c-0.9-0.1-1.8,0-2.7,0c-0.8-0.1-1.2-0.4-1.1-0.9c0.2-1.2,0-2.4-0.1-3.5
			c-0.2-3,0-6-0.4-9C319.6,23.5,319.6,18,319.4,11.9L319.4,11.9z"/>
		<path class="st0" d="M338.4,53.3c0.8,5.2-2.6,11.5-7.5,13.1c-0.3,0.1-0.6,0.3-0.9,0.3c-2.8-0.4-5.6-0.5-8-2.5
			c-2.9-2.4-3.3-5.7-3.7-9c-0.3-3.3,1.2-5.8,3.6-8.1c2.3-2.1,4.8-2.1,7.6-1.9c3.2,0.2,5.5,2,7.5,4.2C338.1,50.6,338.4,52,338.4,53.3
			L338.4,53.3z"/>
	</g>
</g>
</svg>
